<?xml version="1.0" encoding="UTF-8" standalone="no"?>
<!-- Created with Inkscape (http://www.inkscape.org/) -->

<svg
   width="210mm"
   height="297mm"
   viewBox="0 0 210 297"
   version="1.1"
   id="svg5"
   inkscape:version="1.2.1 (9c6d41e, 2022-07-14)"
   sodipodi:docname="drawing.svg"
   xmlns:inkscape="http://www.inkscape.org/namespaces/inkscape"
   xmlns:sodipodi="http://sodipodi.sourceforge.net/DTD/sodipodi-0.dtd"
   xmlns="http://www.w3.org/2000/svg"
   xmlns:svg="http://www.w3.org/2000/svg">
  <sodipodi:namedview
     id="namedview7"
     pagecolor="#ffffff"
     bordercolor="#666666"
     borderopacity="1.0"
     inkscape:showpageshadow="2"
     inkscape:pageopacity="0.0"
     inkscape:pagecheckerboard="0"
     inkscape:deskcolor="#d1d1d1"
     inkscape:document-units="mm"
     showgrid="false"
     inkscape:zoom="0.96287805"
     inkscape:cx="344.28036"
     inkscape:cy="508.89103"
     inkscape:window-width="1440"
     inkscape:window-height="900"
     inkscape:window-x="0"
     inkscape:window-y="0"
     inkscape:window-maximized="0"
     inkscape:current-layer="layer1" />
  <defs
     id="defs2">
    <inkscape:path-effect
       effect="perspective-envelope"
       up_left_point="109.59038,73.170889"
       up_right_point="175.97846,84.362804"
       down_left_point="33.738165,89.234776"
       down_right_point="104.2671,107.42896"
       id="path-effect973"
       is_visible="true"
       lpeversion="1"
       deform_type="perspective"
       horizontal_mirror="false"
       vertical_mirror="false"
       overflow_perspective="false" />
    <inkscape:path-effect
       effect="perspective-envelope"
       up_left_point="109.67221,73.547197"
       up_right_point="175.05909,84.581338"
       down_left_point="33.197535,89.349617"
       down_right_point="104.82725,107.11189"
       id="path-effect968"
       is_visible="true"
       lpeversion="1"
       deform_type="perspective"
       horizontal_mirror="false"
       vertical_mirror="false"
       overflow_perspective="false" />
    <inkscape:path-effect
       effect="perspective-envelope"
       up_left_point="177.66197,35.551611"
       up_right_point="177.66197,115.07846"
       down_left_point="91.99276,35.55161"
       down_right_point="91.99275,115.07846"
       id="path-effect955"
       is_visible="true"
       lpeversion="1"
       deform_type="perspective"
       horizontal_mirror="false"
       vertical_mirror="false"
       overflow_perspective="false" />
    <inkscape:path-effect
       effect="perspective-envelope"
       up_left_point="106.08456,105.67664"
       up_right_point="180.03712,82.922473"
       down_left_point="106.08456,214.04764"
       down_right_point="180.03712,164.83514"
       id="path-effect951"
       is_visible="true"
       lpeversion="1"
       deform_type="perspective"
       horizontal_mirror="false"
       vertical_mirror="false"
       overflow_perspective="false" />
    <inkscape:path-effect
       effect="perspective-envelope"
       up_left_point="47.884878,92.695524"
       up_right_point="105.34875,105.67665"
       down_left_point="44.906581,181.76876"
       down_right_point="105.34875,214.04793"
       id="path-effect949"
       is_visible="true"
       lpeversion="1"
       deform_type="perspective"
       horizontal_mirror="false"
       vertical_mirror="false"
       overflow_perspective="false" />
    <inkscape:path-effect
       effect="perspective-envelope"
       up_left_point="33.388372,87.998737"
       up_right_point="86.792396,101.08203"
       down_left_point="33.388372,174.84202"
       down_right_point="87.007804,204.26071"
       id="path-effect947"
       is_visible="true"
       lpeversion="1"
       deform_type="perspective"
       horizontal_mirror="false"
       vertical_mirror="false"
       overflow_perspective="false" />
    <inkscape:path-effect
       effect="perspective-envelope"
       up_left_point="33.800483,87.684978"
       up_right_point="72.917007,87.684978"
       down_left_point="33.800483,175.15418"
       down_right_point="72.917007,175.15418"
       id="path-effect945"
       is_visible="true"
       lpeversion="1"
       deform_type="perspective"
       horizontal_mirror="false"
       vertical_mirror="false"
       overflow_perspective="false" />
    <rect
       x="127"
       y="332"
       width="258"
       height="413"
       id="rect804" />
    <rect
       x="170"
       y="468"
       width="115"
       height="111"
       id="rect798" />
    <inkscape:path-effect
       effect="perspective-envelope"
       up_left_point="35.856849,83.554172"
       up_right_point="111.65243,100.89819"
       down_left_point="35.894735,166.81626"
       down_right_point="112.20943,203.10095"
       id="path-effect792"
       is_visible="true"
       lpeversion="1"
       deform_type="perspective"
       horizontal_mirror="false"
       vertical_mirror="false"
       overflow_perspective="false" />
    <inkscape:perspective
       sodipodi:type="inkscape:persp3d"
       inkscape:vp_x="51.593749 : 108.01875 : 1"
       inkscape:vp_y="0 : 1000 : 0"
       inkscape:vp_z="261.59375 : 108.01875 : 1"
       inkscape:persp3d-origin="156.59375 : 58.518749 : 1"
       id="perspective630" />
    <inkscape:path-effect
       effect="envelope"
       id="path-effect587"
       is_visible="true"
       lpeversion="1"
       yy="true"
       xx="true"
       bendpath1="M 35.856849,83.554172 H 112.20943"
       bendpath2="M 112.20943,83.554172 V 203.10095"
       bendpath3="M 35.856849,203.10095 H 112.20943"
       bendpath4="M 35.856849,83.554172 V 203.10095" />
    <rect
       x="127"
       y="330"
       width="273"
       height="478"
       id="rect526" />
    <rect
       x="126"
       y="332"
       width="274"
       height="478"
       id="rect520" />
    <inkscape:perspective
       sodipodi:type="inkscape:persp3d"
       inkscape:vp_x="-273.51572 : 286.24067 : 1"
       inkscape:vp_y="0 : 2722.4185 : 0"
       inkscape:vp_z="410.72052 : 286.24067 : 1"
       inkscape:persp3d-origin="68.602382 : 151.48097 : 1"
       id="perspective286" />
  </defs>
  <g
     inkscape:label="Layer 1"
     inkscape:groupmode="layer"
     id="layer1">
    <path
       style="opacity:1;fill:#ff8d2f;fill-opacity:1;stroke:none;stroke-width:0.814139"
       d="M 401.37047,603.71899 V 399.81221 l 10.38027,-3.24417 c 8.6488,-2.70303 262.23728,-80.68831 266.63048,-81.99605 1.32636,-0.39482 1.42474,0.80394 1.42474,17.35992 l 0.81414,29.18197 -107.8734,39.05597 -101.36029,35.7994 -0.81414,40.18451 c -0.85576,42.23862 0.20968,53.12515 1.01768,52.79545 0.55972,-0.2284 45.71389,-20.45542 100.34261,-44.94893 54.62872,-24.49352 101.25531,-45.39461 103.61465,-46.44687 l 4.2897,-1.91319 -0.219,17.87063 -0.21902,38.22411 -93.62596,47.0476 -114.79359,56.00313 -0.20796,50.65152 c -0.16218,39.50036 -0.006,49.83739 0.24018,49.83739 0.24648,0 44.74029,-23.42685 101.86032,-59.02507 57.12003,-35.59822 106.44037,-64.72404 106.61555,-64.72404 0.1752,0 0.31853,24.17394 0.31853,33.81868 v 17.53591 l -138.86044,92.37284 c -76.37325,50.80507 -139.02124,92.37285 -139.21775,92.37285 -0.19652,0 -0.3573,-91.75805 -0.3573,-203.90678 z"
       id="path1044"
       transform="scale(0.26458333)"
       sodipodi:nodetypes="scssscccsssscccccssssscsss" />
    <path
       style="opacity:1;fill:#ff8d2f;fill-opacity:1;stroke:none;stroke-width:0.814139"
       d="m 284.65178,747.83459 c -61.50862,-32.86149 -118.8928,-63.86317 -119.29605,-64.26643 -0.41166,-0.41166 0.43299,-9.58266 0.3238,-23.06663 l -0.20468,-25.27738 49.45781,24.46152 c 97.67794,48.31089 117.92519,57.55994 118.24528,57.23985 0.18484,-0.18484 -0.0575,-74.80258 -0.53851,-165.8172 -0.48103,-91.01462 -0.73654,-165.61917 -0.56781,-165.78789 0.16872,-0.16873 14.84536,3.19033 32.61474,7.46456 17.76939,4.27424 32.46829,7.77134 32.66423,7.77134 0.19594,0 0.35625,91.59062 0.35625,203.53472 0,111.94409 -0.27477,203.52504 -0.6106,203.51322 -0.33583,-0.0118 -50.93584,-26.90818 -112.44446,-59.76968 z"
       id="path3346"
       transform="scale(0.26458333)"
       sodipodi:nodetypes="ssscsssssssss" />
    <path
       style="opacity:1;fill:#ff8d2f;fill-opacity:1;stroke:none;stroke-width:0.814139"
       d="m 143.92319,670.15851 -17.27631,-9.48481 -0.0241,-163.73341 -0.0241,-163.7334 14.85803,3.59411 c 8.17192,1.97675 53.3261,13.01774 100.34262,24.53552 l 85.48458,20.94142 0.21652,22.63147 0.21651,22.63147 -1.84479,-0.58988 c -1.01464,-0.32442 -37.56514,-10.61617 -81.22334,-22.87054 -43.65819,-12.25437 -80.01967,-22.48148 -80.80328,-22.72693 -1.34595,-0.42158 -1.4244,2.22455 -1.41861,47.84633 l 0.006,48.29259 63.29317,23.13316 c 34.81124,12.72324 66.13248,24.20414 69.60274,25.51311 l 6.30958,2.37994 v 21.9976 c 0,17.26493 -0.21895,21.91302 -1.01767,21.60453 -0.55972,-0.21618 -31.6411,-12.7117 -69.06973,-27.76783 -37.42861,-15.05613 -68.29465,-27.37477 -68.59118,-27.37477 -0.29653,0 -0.53914,36.63625 -0.53914,81.41389 0,44.77763 -0.27478,81.37729 -0.61061,81.33256 -0.33583,-0.0447 -8.38494,-4.34949 -17.88691,-9.56613 z"
       id="path3348"
       transform="scale(0.26458333)" />
    <path
       style="opacity:1;fill:#ff8d2f;fill-opacity:1;stroke:none;stroke-width:0.814139"
       d="m 367.3324,390.34424 c -18.27316,-4.5855 -33.34726,-8.46842 -33.49799,-8.62872 -0.15074,-0.1603 9.74278,-11.82111 21.9856,-25.9129 12.24281,-14.0918 22.15715,-25.72397 22.03185,-25.84927 -0.1253,-0.12529 -45.55036,2.7005 -100.94458,6.27954 l -100.71677,6.50735 -21.74294,-5.45801 -21.74293,-5.458 125.78445,-7.10695 c 69.18146,-3.90882 126.41184,-7.12858 127.17864,-7.15503 0.82548,-0.0285 7.79952,-8.24945 17.09692,-20.15381 8.6365,-11.05815 16.6496,-21.19049 17.80688,-22.51631 l 2.10416,-2.41059 23.54122,3.87313 c 12.94767,2.13022 23.64739,3.97292 23.77715,4.09489 0.12976,0.12197 -4.36127,7.39039 -9.98005,16.15204 -5.61879,8.76165 -10.41536,16.44982 -10.65903,17.08482 -0.35421,0.92305 0.34094,1.09006 3.46695,0.83295 2.15049,-0.17687 40.17987,-2.52692 84.50973,-5.22233 l 80.59975,-4.90074 26.72097,4.30074 c 14.69654,2.36541 26.42014,4.4004 26.05245,4.52221 -0.36769,0.12181 -52.10719,3.14825 -114.97666,6.72542 -62.86947,3.57716 -114.39448,6.60027 -114.50002,6.71801 -0.10554,0.11775 -9.25763,16.33403 -20.33795,36.03619 -11.08034,19.70216 -20.18831,35.85823 -20.23996,35.90238 -0.0516,0.0441 -15.04468,-3.67151 -33.31784,-8.25701 z"
       id="path3350"
       transform="scale(0.26458333)" />
  </g>
</svg>
