<?xml version="1.0" encoding="UTF-8" standalone="no"?>
<!-- Created with Inkscape (http://www.inkscape.org/) -->

<svg
   width="150mm"
   height="150mm"
   viewBox="0 0 149.99999 150"
   version="1.1"
   id="svg5"
   inkscape:version="1.2.1 (9c6d41e, 2022-07-14)"
   sodipodi:docname="logosq.svg"
   xmlns:inkscape="http://www.inkscape.org/namespaces/inkscape"
   xmlns:sodipodi="http://sodipodi.sourceforge.net/DTD/sodipodi-0.dtd"
   xmlns="http://www.w3.org/2000/svg"
   xmlns:svg="http://www.w3.org/2000/svg">
  <sodipodi:namedview
     id="namedview7"
     pagecolor="#ffffff"
     bordercolor="#666666"
     borderopacity="1.0"
     inkscape:showpageshadow="2"
     inkscape:pageopacity="0.0"
     inkscape:pagecheckerboard="0"
     inkscape:deskcolor="#d1d1d1"
     inkscape:document-units="mm"
     showgrid="false"
     inkscape:zoom="1.7287207"
     inkscape:cx="210.84956"
     inkscape:cy="220.10496"
     inkscape:window-width="1440"
     inkscape:window-height="811"
     inkscape:window-x="0"
     inkscape:window-y="25"
     inkscape:window-maximized="0"
     inkscape:current-layer="layer1" />
  <defs
     id="defs2">
    <inkscape:path-effect
       effect="perspective-envelope"
       up_left_point="34.811375,72.193581"
       up_right_point="177.15938,72.193581"
       down_left_point="34.811375,105.56286"
       down_right_point="177.15938,105.56286"
       id="path-effect1040"
       is_visible="true"
       lpeversion="1"
       deform_type="perspective"
       horizontal_mirror="false"
       vertical_mirror="false"
       overflow_perspective="false" />
    <inkscape:path-effect
       effect="perspective-envelope"
       up_left_point="33.796375,88.160581"
       up_right_point="87.618942,88.61974"
       down_left_point="33.796375,179.84418"
       down_right_point="86.705863,180.45639"
       id="path-effect1038"
       is_visible="true"
       lpeversion="1"
       deform_type="perspective"
       horizontal_mirror="false"
       vertical_mirror="false"
       overflow_perspective="false" />
    <inkscape:path-effect
       effect="perspective-envelope"
       up_left_point="109.59038,73.170889"
       up_right_point="175.97846,84.362804"
       down_left_point="33.738165,89.234776"
       down_right_point="104.2671,107.42896"
       id="path-effect973"
       is_visible="true"
       lpeversion="1"
       deform_type="perspective"
       horizontal_mirror="false"
       vertical_mirror="false"
       overflow_perspective="false" />
    <inkscape:path-effect
       effect="perspective-envelope"
       up_left_point="109.67221,73.547197"
       up_right_point="175.05909,84.581338"
       down_left_point="33.197535,89.349617"
       down_right_point="104.82725,107.11189"
       id="path-effect968"
       is_visible="true"
       lpeversion="1"
       deform_type="perspective"
       horizontal_mirror="false"
       vertical_mirror="false"
       overflow_perspective="false" />
    <inkscape:path-effect
       effect="perspective-envelope"
       up_left_point="177.66197,35.551611"
       up_right_point="177.66197,115.07846"
       down_left_point="91.99276,35.55161"
       down_right_point="91.99275,115.07846"
       id="path-effect955"
       is_visible="true"
       lpeversion="1"
       deform_type="perspective"
       horizontal_mirror="false"
       vertical_mirror="false"
       overflow_perspective="false" />
    <inkscape:path-effect
       effect="perspective-envelope"
       up_left_point="106.08456,105.67664"
       up_right_point="180.03712,82.922473"
       down_left_point="106.08456,214.04764"
       down_right_point="180.03712,164.83514"
       id="path-effect951"
       is_visible="true"
       lpeversion="1"
       deform_type="perspective"
       horizontal_mirror="false"
       vertical_mirror="false"
       overflow_perspective="false" />
    <inkscape:path-effect
       effect="perspective-envelope"
       up_left_point="47.884878,92.695524"
       up_right_point="105.34875,105.67665"
       down_left_point="44.906581,181.76876"
       down_right_point="105.34875,214.04793"
       id="path-effect949"
       is_visible="true"
       lpeversion="1"
       deform_type="perspective"
       horizontal_mirror="false"
       vertical_mirror="false"
       overflow_perspective="false" />
    <inkscape:path-effect
       effect="perspective-envelope"
       up_left_point="33.388372,87.998737"
       up_right_point="86.792396,101.08203"
       down_left_point="33.388372,174.84202"
       down_right_point="87.007804,204.26071"
       id="path-effect947"
       is_visible="true"
       lpeversion="1"
       deform_type="perspective"
       horizontal_mirror="false"
       vertical_mirror="false"
       overflow_perspective="false" />
    <inkscape:path-effect
       effect="perspective-envelope"
       up_left_point="33.800483,87.684978"
       up_right_point="72.917007,87.684978"
       down_left_point="33.800483,175.15418"
       down_right_point="72.917007,175.15418"
       id="path-effect945"
       is_visible="true"
       lpeversion="1"
       deform_type="perspective"
       horizontal_mirror="false"
       vertical_mirror="false"
       overflow_perspective="false" />
    <rect
       x="127"
       y="332"
       width="258"
       height="413"
       id="rect804" />
    <rect
       x="170"
       y="468"
       width="115"
       height="111"
       id="rect798" />
    <inkscape:path-effect
       effect="perspective-envelope"
       up_left_point="35.856849,83.554172"
       up_right_point="111.65243,100.89819"
       down_left_point="35.894735,166.81626"
       down_right_point="112.20943,203.10095"
       id="path-effect792"
       is_visible="true"
       lpeversion="1"
       deform_type="perspective"
       horizontal_mirror="false"
       vertical_mirror="false"
       overflow_perspective="false" />
    <inkscape:perspective
       sodipodi:type="inkscape:persp3d"
       inkscape:vp_x="51.593745 : -38.98125 : 1"
       inkscape:vp_y="0 : 999.99997 : 0"
       inkscape:vp_z="261.59373 : -38.98125 : 1"
       inkscape:persp3d-origin="156.59373 : -88.481249 : 1"
       id="perspective630" />
    <inkscape:path-effect
       effect="envelope"
       id="path-effect587"
       is_visible="true"
       lpeversion="1"
       yy="true"
       xx="true"
       bendpath1="M 35.856849,83.554172 H 112.20943"
       bendpath2="M 112.20943,83.554172 V 203.10095"
       bendpath3="M 35.856849,203.10095 H 112.20943"
       bendpath4="M 35.856849,83.554172 V 203.10095" />
    <rect
       x="127"
       y="330"
       width="273"
       height="478"
       id="rect526" />
    <rect
       x="126"
       y="332"
       width="274"
       height="478"
       id="rect520" />
    <inkscape:perspective
       sodipodi:type="inkscape:persp3d"
       inkscape:vp_x="-273.5157 : 139.24066 : 1"
       inkscape:vp_y="0 : 2722.4185 : 0"
       inkscape:vp_z="410.72049 : 139.24066 : 1"
       inkscape:persp3d-origin="68.602379 : 4.4809702 : 1"
       id="perspective286" />
  </defs>
  <g
     inkscape:label="Layer 1"
     inkscape:groupmode="layer"
     id="layer1"
     transform="translate(-31.834375,-69.286581)">
    <path
       style="opacity:1;fill:#ff8d2f;fill-opacity:1;stroke:none;stroke-width:0.215408"
       d="m 105.66677,159.83436 v -53.95033 l 2.74645,-0.85836 c 2.28832,-0.71517 69.38361,-21.348778 70.54598,-21.694784 0.35093,-0.104463 0.37696,0.212709 0.37696,4.593145 l 0.21541,7.721063 -28.54151,10.333556 -26.81824,9.47193 -0.21541,10.63215 c -0.22642,11.17563 0.0555,14.05603 0.26926,13.96879 0.1481,-0.0604 12.09514,-5.41216 26.54898,-11.89273 14.45385,-6.48058 26.79047,-12.01066 27.41471,-12.28907 l 1.13499,-0.5062 -0.058,4.72827 -0.0579,10.11346 -24.77186,12.44801 -30.37247,14.8175 -0.055,13.40155 c -0.0429,10.45113 -0.002,13.18614 0.0636,13.18614 0.0652,0 11.83754,-6.19836 26.95054,-15.61705 15.11301,-9.4187 28.16235,-17.1249 28.2087,-17.1249 0.0464,0 0.0843,6.39602 0.0843,8.94786 v 4.63971 L 142.596,189.34438 c -20.20709,13.44217 -36.7827,24.44032 -36.8347,24.44032 -0.052,0 -0.0945,-24.27765 -0.0945,-53.95034 z"
       id="path1044"
       sodipodi:nodetypes="scssscccsssscccccssssscsss" />
    <path
       style="opacity:1;fill:#ff8d2f;fill-opacity:1;stroke:none;stroke-width:0.814139"
       d="m 284.65178,747.83459 c -61.50862,-32.86149 -118.8928,-63.86317 -119.29605,-64.26643 -0.41166,-0.41166 0.43298,-9.58266 0.3238,-23.06663 l -0.20468,-25.27738 49.45781,24.46152 c 97.67794,48.31089 117.92519,57.55994 118.24528,57.23985 0.18484,-0.18484 -0.0575,-74.80258 -0.53851,-165.8172 -0.48103,-91.01462 -0.73654,-165.61917 -0.56781,-165.78789 0.16872,-0.16873 14.84536,3.19033 32.61474,7.46456 17.76939,4.27424 32.46829,7.77134 32.66423,7.77134 0.19594,0 0.35625,91.59062 0.35625,203.53472 0,111.94409 -0.27477,203.52504 -0.6106,203.51322 -0.33583,-0.0118 -50.93584,-26.90818 -112.44446,-59.76968 z"
       id="path3346"
       transform="scale(0.26458333)"
       sodipodi:nodetypes="ssscsssssssss" />
    <path
       style="opacity:1;fill:#ff8d2f;fill-opacity:1;stroke:none;stroke-width:0.214794"
       d="m 38.3488,177.4071 -4.539835,-2.52264 -0.0062,-43.01185 -0.0063,-43.712029 3.968983,1.001145 c 2.182783,0.550587 14.241669,3.624188 26.794064,6.829338 l 22.812497,5.824996 -0.0023,6.06544 -0.0023,6.05185 -0.4907,-0.16217 c -0.269893,-0.0892 -9.997795,-2.92997 -21.622247,-6.31421 -11.629613,-3.38574 -21.319468,-6.21236 -21.528317,-6.28001 -0.35873,-0.11617 -0.380905,0.59258 -0.400924,12.78622 l -0.02111,12.84762 16.777611,6.30068 c 9.21932,3.46223 17.509217,6.58425 18.427324,6.93983 l 1.66913,0.64641 -0.05026,5.80931 c -0.03937,4.55065 -0.107936,5.77384 -0.318745,5.69039 -0.147731,-0.0585 -8.353017,-3.43654 -18.241386,-7.50987 -9.896534,-4.07668 -18.064056,-7.41532 -18.142604,-7.41612 -0.07855,-7.9e-4 -0.159907,9.66666 -0.180717,21.43599 -0.02072,11.71772 -0.109795,21.25645 -0.198022,21.24378 -0.08823,-0.0126 -2.201709,-1.1573 -4.697405,-2.54409 z"
       id="path3348"
       inkscape:path-effect="#path-effect1038"
       inkscape:original-d="m 38.354046,177.3131 -4.544991,-2.50953 -0.0063,-43.3215 -0.0063,-43.321489 3.908798,0.95095 c 2.14984,0.523019 14.028844,3.444305 26.397786,6.491743 l 22.488984,5.540806 0.05696,5.98796 0.05696,5.98796 -0.485321,-0.15608 c -0.266928,-0.0858 -9.882506,-2.80888 -21.367952,-6.05121 -11.485444,-3.24232 -21.051295,-5.94827 -21.257444,-6.01322 -0.354088,-0.11154 -0.374727,0.58858 -0.373203,12.65946 l 0.0016,12.77751 16.650946,6.12069 c 9.158019,3.36638 17.397901,6.40406 18.310845,6.75041 l 1.659902,0.6297 v 5.82025 c 0,4.56805 -0.0576,5.79786 -0.267725,5.71625 -0.147249,-0.0572 -8.32403,-3.36333 -18.170623,-7.34697 -9.846587,-3.98363 -17.966717,-7.24298 -18.044727,-7.24298 -0.07801,0 -0.141835,9.69343 -0.141835,21.54094 0,11.84751 -0.07229,21.53127 -0.160638,21.51942 -0.08835,-0.0118 -2.20588,-1.15081 -4.705625,-2.53106 z" />
    <path
       style="opacity:1;fill:#ff8d2f;fill-opacity:1;stroke:none;stroke-width:0.215408"
       d="m 96.889924,103.66676 c -4.834772,-1.22448 -8.823122,-2.26134 -8.863003,-2.30415 -0.03989,-0.0428 2.577773,-3.156623 5.817018,-6.91959 3.23924,-3.762968 5.86241,-6.869137 5.829249,-6.902596 -0.03313,-0.03346 -12.05185,0.721121 -26.708227,1.676842 L 46.317002,90.95494 40.564186,89.497474 34.811375,88.04001 68.091819,86.142223 c 18.304248,-1.043781 33.446431,-1.903562 33.649331,-1.910625 0.2184,-0.0076 2.06362,-2.202872 4.52353,-5.381724 2.28509,-2.952886 4.40522,-5.65855 4.71141,-6.012587 l 0.55673,-0.643706 6.22861,1.034252 c 3.42575,0.568838 6.25671,1.060899 6.29104,1.093468 0.0342,0.03257 -1.15392,1.973475 -2.64057,4.313121 -1.48663,2.339646 -2.75572,4.392637 -2.8202,4.562203 -0.0938,0.246484 0.0903,0.291081 0.91731,0.222424 0.56898,-0.04723 10.63092,-0.67477 22.35986,-1.394531 l 21.32534,-1.308657 7.0699,1.148437 c 3.88845,0.631642 6.99032,1.17505 6.89304,1.207577 -0.0974,0.03253 -13.78667,0.840686 -30.42089,1.795906 -16.63419,0.955218 -30.26685,1.762487 -30.29478,1.793928 -0.0279,0.03144 -2.90855,4.207249 -5.84022,9.468367 -2.93168,5.261124 -5.34149,9.420844 -5.35515,9.432634 -0.0137,0.0118 -3.52142,-0.67147 -8.356186,-1.89595 z"
       id="path3350"
       inkscape:path-effect="#path-effect1040"
       inkscape:original-d="m 96.889914,103.37809 c -4.834771,-1.21325 -8.823121,-2.2406 -8.863002,-2.28302 -0.03989,-0.0424 2.577773,-3.127667 5.817018,-6.85612 3.239239,-3.728455 5.862409,-6.806134 5.829248,-6.839286 -0.03313,-0.03315 -12.051848,0.714507 -26.708223,1.661462 L 46.317,90.782862 40.564185,89.338764 34.811375,87.894668 68.091814,86.014287 c 18.304245,-1.034208 33.446426,-1.886103 33.649326,-1.893101 0.2184,-0.0075 2.06362,-2.182667 4.52353,-5.332363 2.28509,-2.925802 4.40522,-5.60665 4.71141,-5.95744 l 0.55673,-0.637802 6.22861,1.024766 c 3.42575,0.563621 6.25671,1.051168 6.29104,1.083439 0.0342,0.03227 -1.15392,1.955374 -2.64057,4.273561 -1.48663,2.318187 -2.75572,4.352348 -2.8202,4.520359 -0.0938,0.244223 0.0903,0.288411 0.91731,0.220384 0.56898,-0.0468 10.63091,-0.668581 22.35985,-1.381741 l 21.32534,-1.296654 7.0699,1.137904 c 3.88845,0.625848 6.99032,1.164272 6.89304,1.196501 -0.0974,0.03223 -13.78667,0.832975 -30.42089,1.779434 -16.63419,0.946457 -30.26684,1.746322 -30.29477,1.777474 -0.0279,0.03115 -2.90855,4.168661 -5.84022,9.381524 -2.93168,5.212868 -5.34149,9.334438 -5.35515,9.346118 -0.0137,0.0117 -3.52142,-0.66531 -8.356186,-1.87856 z"
       sodipodi:nodetypes="ssssscccsssscsssssscsssssss" />
  </g>
</svg>
